<svg xmlns="http://www.w3.org/2000/svg" xmlns:xlink="http://www.w3.org/1999/xlink" viewBox="0,0,256,256" width="480px" height="480px"><g fill="#ffffff" fill-rule="nonzero" stroke="none" stroke-width="1" stroke-linecap="butt" stroke-linejoin="miter" stroke-miterlimit="10" stroke-dasharray="" stroke-dashoffset="0" font-family="none" font-weight="none" font-size="none" text-anchor="none" style="mix-blend-mode: normal"><g transform="scale(3.2,3.2)"><path d="M40,7c-18.21484,0 -33,14.78516 -33,33c0,18.21484 14.78516,33 33,33c18.21484,0 33,-14.78516 33,-33c0,-18.21484 -14.78516,-33 -33,-33zM40,9c17.13281,0 31,13.86719 31,31c0,17.13281 -13.86719,31 -31,31c-17.13281,0 -31,-13.86719 -31,-31c0,-17.13281 13.86719,-31 31,-31zM40,12c-0.55078,0 -1,0.44922 -1,1c0,0.55078 0.44922,1 1,1c0.55078,0 1,-0.44922 1,-1c0,-0.55078 -0.44922,-1 -1,-1zM45.29297,12.51563c-0.48828,-0.01172 -0.91016,0.32813 -1.00781,0.80859c-0.10547,0.53906 0.24609,1.06641 0.78906,1.17578c0.53906,0.10547 1.06641,-0.24609 1.17578,-0.78516c0.10547,-0.54297 -0.24609,-1.07031 -0.78516,-1.17969c-0.05859,-0.00781 -0.11328,-0.01562 -0.17187,-0.01953zM34.73828,12.51953c-0.06641,0 -0.13281,0.00391 -0.19922,0.01563c-0.54297,0.10938 -0.89453,0.63672 -0.78516,1.17969c0.05078,0.25781 0.20313,0.48828 0.42578,0.63672c0.21875,0.14453 0.48828,0.19922 0.75,0.14844c0.54297,-0.10937 0.89453,-0.63281 0.78516,-1.17578c-0.09375,-0.46484 -0.5,-0.80078 -0.97656,-0.80469zM29.67578,14.05469c-0.13281,0 -0.26562,0.02344 -0.39062,0.07422c-0.51172,0.21484 -0.75391,0.79688 -0.53906,1.30859c0.21094,0.51172 0.79297,0.75391 1.30469,0.54297c0.51172,-0.21484 0.75391,-0.79687 0.54297,-1.30859c-0.15625,-0.37109 -0.51562,-0.61328 -0.91797,-0.61719zM50.35547,14.05469c-0.41406,-0.00781 -0.78906,0.23438 -0.94922,0.61719c-0.21094,0.51172 0.03125,1.09375 0.54297,1.30859c0.51172,0.21094 1.09375,-0.03125 1.30469,-0.54297c0.21484,-0.51172 -0.02734,-1.09375 -0.53906,-1.30859c-0.11328,-0.04687 -0.23828,-0.07031 -0.35937,-0.07422zM25.01172,16.54688c-0.20312,0 -0.40234,0.05859 -0.57031,0.17188c-0.45703,0.30469 -0.58203,0.92578 -0.27344,1.38672c0.30469,0.45703 0.92578,0.58203 1.38672,0.27344c0.46094,-0.30469 0.58203,-0.92578 0.27734,-1.38281c-0.18359,-0.27734 -0.49219,-0.44531 -0.82031,-0.44922zM55.01563,16.54688c-0.33984,-0.00391 -0.66016,0.16406 -0.84766,0.44922c-0.30859,0.45703 -0.18359,1.07813 0.27344,1.38281c0.46094,0.30859 1.08203,0.18359 1.38672,-0.27344c0.14844,-0.21875 0.20313,-0.49219 0.15234,-0.75c-0.05078,-0.26172 -0.20312,-0.49219 -0.42578,-0.63672c-0.16016,-0.10937 -0.34375,-0.16797 -0.53906,-0.17187zM20.92188,19.90625c-0.26953,0 -0.53125,0.10547 -0.71875,0.29688c-0.39062,0.38672 -0.39062,1.02344 0,1.41016c0.38672,0.39063 1.02344,0.39063 1.41016,0c0.39063,-0.38672 0.39063,-1.02344 0,-1.41016c-0.18359,-0.1875 -0.42969,-0.29297 -0.69141,-0.29687zM59.10547,19.90625c-0.26953,0 -0.53125,0.10547 -0.71875,0.29688c-0.39062,0.38672 -0.39062,1.02344 0,1.41016c0.38672,0.39063 1.02344,0.39063 1.41016,0c0.39063,-0.38672 0.39063,-1.02344 0,-1.41016c-0.18359,-0.1875 -0.42969,-0.29297 -0.69141,-0.29687zM62.46094,24c-0.20312,-0.00391 -0.39844,0.05469 -0.56641,0.16797c-0.45703,0.30469 -0.58203,0.92578 -0.27344,1.38281c0.30469,0.46094 0.92578,0.58594 1.38281,0.27734c0.46094,-0.30859 0.58594,-0.92578 0.27734,-1.38672c-0.18359,-0.27344 -0.49219,-0.44141 -0.82031,-0.44141zM17.56641,24c-0.33984,-0.00781 -0.66016,0.16016 -0.84766,0.44141c-0.30469,0.46094 -0.18359,1.08203 0.27734,1.38672c0.46094,0.30859 1.07813,0.18359 1.38672,-0.27344c0.30469,-0.46094 0.18359,-1.08203 -0.27734,-1.38672c-0.16016,-0.10547 -0.34375,-0.16406 -0.53906,-0.16797zM35.96875,24.64844v4.19531h-3.86719v22.54688h3.86719v3.96094h2.0625v-3.96094h2.9375v3.96094h2.0625v-4.06641c3.80859,-0.50391 6.03906,-2.79687 6.03906,-6.28516c0,-2.9375 -2.03125,-5.10937 -5.07812,-5.42187v-0.26562c2.21875,-0.375 3.95313,-2.48437 3.95313,-4.84375c0,-2.91797 -1.8125,-4.90625 -4.91406,-5.46094v-4.35937h-2.0625v4.19531h-2.9375v-4.19531zM64.95313,28.66797c-0.13281,-0.00391 -0.26562,0.02344 -0.39062,0.07422c-0.51172,0.21094 -0.75391,0.79688 -0.54297,1.30469c0.21484,0.51172 0.79688,0.75391 1.30859,0.54297c0.51172,-0.21094 0.75391,-0.79687 0.54297,-1.30859c-0.15625,-0.36719 -0.51562,-0.61328 -0.91797,-0.61328zM15.07813,28.66797c-0.41406,-0.00781 -0.78906,0.23438 -0.94531,0.61719c-0.21094,0.51172 0.03125,1.09375 0.53906,1.30859c0.51172,0.21094 1.09766,-0.03125 1.30859,-0.54297c0.21094,-0.51172 -0.03125,-1.09375 -0.54297,-1.30469c-0.11328,-0.05078 -0.23437,-0.07422 -0.35937,-0.07812zM35.60156,31.8125h4.75c2.59375,0 4.10938,1.22266 4.10938,3.29688c0,2.14063 -1.60937,3.28125 -4.70312,3.28125h-4.15625zM66.48438,33.73438c-0.06641,-0.00391 -0.13281,0.00391 -0.19922,0.01563c-0.53906,0.10938 -0.89062,0.63672 -0.78516,1.17578c0.10938,0.54297 0.63672,0.89453 1.17578,0.78906c0.54297,-0.10937 0.89453,-0.63672 0.78906,-1.17969c-0.09375,-0.46484 -0.50391,-0.80078 -0.98047,-0.80078zM13.54688,33.73438c-0.48828,-0.01172 -0.91016,0.32422 -1.00781,0.80078c-0.05078,0.26172 0,0.53516 0.14844,0.75391c0.14844,0.22266 0.37891,0.375 0.64063,0.42578c0.25781,0.05078 0.52734,-0.00391 0.75,-0.14844c0.21875,-0.14844 0.37109,-0.37891 0.42188,-0.64062c0.10938,-0.53906 -0.24219,-1.06641 -0.78125,-1.17578c-0.05859,-0.00781 -0.11328,-0.01562 -0.17187,-0.01562zM13,39c-0.55078,0 -1,0.44922 -1,1c0,0.55078 0.44922,1 1,1c0.55078,0 1,-0.44922 1,-1c0,-0.55078 -0.44922,-1 -1,-1zM67,39c-0.55078,0 -1,0.44922 -1,1c0,0.55078 0.44922,1 1,1c0.55078,0 1,-0.44922 1,-1c0,-0.55078 -0.44922,-1 -1,-1zM35.60156,41.15625h4.85938c3.29688,0 5.03125,1.23828 5.03125,3.59375c0,2.39453 -1.67187,3.67188 -4.82812,3.67188h-5.0625zM13.52344,44.26563c-0.06641,0 -0.13281,0.00781 -0.19922,0.01953c-0.54297,0.10938 -0.89453,0.63672 -0.78516,1.17969c0.10938,0.53906 0.63281,0.89063 1.17578,0.78516c0.54297,-0.10937 0.89453,-0.63672 0.78516,-1.17578c-0.09375,-0.46875 -0.5,-0.80469 -0.97656,-0.80859zM66.50781,44.26563c-0.48828,-0.01172 -0.91016,0.32813 -1.00781,0.80859c-0.10547,0.53906 0.24609,1.06641 0.78516,1.17578c0.54297,0.10547 1.07031,-0.24609 1.17969,-0.78516c0.10547,-0.54297 -0.24609,-1.07031 -0.78906,-1.17969c-0.05469,-0.00781 -0.10937,-0.01562 -0.16797,-0.01953zM64.96875,49.32813c-0.41406,-0.00781 -0.78906,0.23828 -0.94922,0.62109c-0.21094,0.50781 0.03125,1.09375 0.54297,1.30469c0.51172,0.21094 1.09375,-0.03125 1.30859,-0.53906c0.21094,-0.51172 -0.03125,-1.09766 -0.54297,-1.30859c-0.11328,-0.04687 -0.23828,-0.07422 -0.35937,-0.07812zM15.0625,49.33203c-0.13281,0 -0.26562,0.02344 -0.39062,0.07422c-0.24219,0.10156 -0.4375,0.29688 -0.53906,0.54297c-0.10156,0.24609 -0.10156,0.51953 -0.00391,0.76563c0.21484,0.51172 0.79688,0.75391 1.30859,0.53906c0.24609,-0.09766 0.44141,-0.29297 0.54297,-0.53906c0.10156,-0.24609 0.10156,-0.51953 0,-0.76562c-0.15234,-0.37109 -0.51562,-0.61328 -0.91797,-0.61719zM62.46875,54c-0.33984,-0.00781 -0.66016,0.16016 -0.84766,0.44141c-0.30859,0.46094 -0.18359,1.07813 0.27344,1.38672c0.21875,0.14844 0.49219,0.20313 0.75,0.14844c0.26172,-0.05078 0.49219,-0.20312 0.63672,-0.42578c0.30859,-0.45703 0.18359,-1.07812 -0.27734,-1.38281c-0.15625,-0.10937 -0.34375,-0.16797 -0.53516,-0.16797zM17.5625,54c-0.20312,-0.00391 -0.39844,0.05469 -0.56641,0.16797c-0.45703,0.30859 -0.58203,0.92578 -0.27734,1.38672c0.30859,0.45703 0.92969,0.58203 1.39063,0.27344c0.45703,-0.30469 0.58203,-0.92578 0.27344,-1.38672c-0.18359,-0.27344 -0.49219,-0.4375 -0.82031,-0.44141zM20.92188,58.09375c-0.26953,-0.00391 -0.53125,0.10156 -0.71875,0.29297c-0.39062,0.38672 -0.39062,1.02344 0,1.41016c0.38672,0.39063 1.02344,0.39063 1.41016,0c0.39063,-0.38672 0.39063,-1.02344 0,-1.41016c-0.18359,-0.1875 -0.42969,-0.29297 -0.69141,-0.29297zM59.10547,58.09375c-0.26953,-0.00391 -0.53125,0.10156 -0.71875,0.29297c-0.39062,0.38672 -0.39062,1.02344 0,1.41016c0.38672,0.39063 1.02344,0.39063 1.41016,0c0.39063,-0.38672 0.39063,-1.02344 0,-1.41016c-0.18359,-0.1875 -0.42969,-0.29297 -0.69141,-0.29297zM25.01953,61.44922c-0.33984,-0.00781 -0.66016,0.16016 -0.84766,0.44141c-0.30859,0.46094 -0.18359,1.08203 0.27734,1.39063c0.45703,0.30469 1.07813,0.17969 1.38281,-0.27734c0.30859,-0.46094 0.18359,-1.07812 -0.27344,-1.38672c-0.16016,-0.10547 -0.34766,-0.16797 -0.53906,-0.16797zM55.01172,61.44922c-0.20312,-0.00391 -0.39844,0.05469 -0.56641,0.16406c-0.22266,0.14844 -0.375,0.37891 -0.42578,0.64063c-0.05078,0.25781 0.00391,0.53125 0.15234,0.75c0.30469,0.45703 0.92578,0.58203 1.38672,0.27734c0.45703,-0.30859 0.58203,-0.92969 0.27344,-1.39062c-0.17969,-0.27344 -0.48828,-0.44141 -0.82031,-0.44141zM29.69141,63.94141c-0.41406,-0.00781 -0.78906,0.23828 -0.94531,0.62109c-0.21094,0.50781 0.03125,1.09375 0.53906,1.30469c0.51172,0.21094 1.09766,-0.03125 1.30859,-0.53906c0.21094,-0.51172 -0.03125,-1.09766 -0.54297,-1.30859c-0.11328,-0.04687 -0.23437,-0.07422 -0.35937,-0.07812zM50.33984,63.94141c-0.13281,0 -0.26562,0.02734 -0.38672,0.07813c-0.24609,0.10156 -0.44141,0.29688 -0.54297,0.53906c-0.10156,0.24609 -0.10156,0.52344 -0.00391,0.76953c0.21484,0.50781 0.79688,0.75 1.30859,0.53906c0.24609,-0.10156 0.44141,-0.29687 0.54297,-0.53906c0.10156,-0.24609 0.10156,-0.52344 0,-0.76562c-0.15234,-0.375 -0.51562,-0.61719 -0.91797,-0.62109zM34.76172,65.48047c-0.48828,-0.01172 -0.91406,0.32813 -1.00781,0.80469c-0.10937,0.54297 0.24219,1.06641 0.78516,1.17578c0.54297,0.10938 1.06641,-0.24219 1.17578,-0.78516c0.10938,-0.54297 -0.24219,-1.06641 -0.78516,-1.17578c-0.05469,-0.01172 -0.11328,-0.01953 -0.16797,-0.01953zM45.26953,65.48438c-0.06641,-0.00391 -0.13281,0.00391 -0.19531,0.01563c-0.54297,0.10938 -0.89453,0.63281 -0.78906,1.17578c0.05469,0.26172 0.20703,0.48828 0.42578,0.63672c0.22266,0.14844 0.49219,0.20313 0.75391,0.15234c0.25781,-0.05469 0.48828,-0.20703 0.63672,-0.42578c0.14453,-0.22266 0.19922,-0.49219 0.14844,-0.75391c-0.09375,-0.46484 -0.50391,-0.80078 -0.98047,-0.80078zM40,66c-0.55078,0 -1,0.44922 -1,1c0,0.55078 0.44922,1 1,1c0.55078,0 1,-0.44922 1,-1c0,-0.55078 -0.44922,-1 -1,-1z"></path></g></g></svg>