<svg xmlns="http://www.w3.org/2000/svg" xmlns:xlink="http://www.w3.org/1999/xlink" viewBox="0,0,256,256" width="500px" height="500px"><g fill="#ffffff" fill-rule="nonzero" stroke="none" stroke-width="1" stroke-linecap="butt" stroke-linejoin="miter" stroke-miterlimit="10" stroke-dasharray="" stroke-dashoffset="0" font-family="none" font-weight="none" font-size="none" text-anchor="none" style="mix-blend-mode: normal"><g transform="scale(5.12,5.12)"><path d="M25,1c-0.33,0 -0.60706,0.16906 -0.78906,0.41406c-0.015,0.02 -0.04069,0.02683 -0.05469,0.04883l-14,22c-0.017,0.026 -0.0192,0.05894 -0.0332,0.08594c-0.032,0.063 -0.05327,0.12536 -0.07227,0.19336c-0.016,0.059 -0.03016,0.11673 -0.03516,0.17773c-0.005,0.068 0.00077,0.13312 0.00977,0.20313c0.005,0.039 -0.00609,0.07919 0.00391,0.11719c0.007,0.027 0.02616,0.04822 0.03516,0.07422c0.009,0.026 0.00558,0.05408 0.01758,0.08008c0.017,0.039 0.04736,0.06361 0.06836,0.09961c0.033,0.057 0.06733,0.11116 0.11133,0.16016c0.048,0.054 0.1012,0.09863 0.1582,0.14063c0.031,0.023 0.05098,0.05522 0.08398,0.07422l14,8c0.022,0.013 0.04731,0.0183 0.07031,0.0293c0.027,0.013 0.05303,0.0222 0.08203,0.0332c0.111,0.04 0.22675,0.06836 0.34375,0.06836c0.117,0 0.23275,-0.02736 0.34375,-0.06836c0.029,-0.011 0.05403,-0.02216 0.08203,-0.03516c0.023,-0.011 0.04831,-0.0163 0.07031,-0.0293l14,-8c0.006,-0.004 0.00962,-0.01067 0.01563,-0.01367c0.102,-0.061 0.19158,-0.13937 0.26758,-0.23437c0.018,-0.023 0.02987,-0.04922 0.04688,-0.07422c0.033,-0.049 0.06975,-0.09439 0.09375,-0.15039c0.011,-0.026 0.00662,-0.05308 0.01563,-0.08008c0.009,-0.026 0.02816,-0.04722 0.03516,-0.07422c0.009,-0.038 0.00086,-0.07819 0.00586,-0.11719c0.009,-0.07 0.01381,-0.13608 0.00781,-0.20508c-0.005,-0.061 -0.01916,-0.11874 -0.03516,-0.17773c-0.019,-0.068 -0.03927,-0.13036 -0.07227,-0.19336c-0.014,-0.027 -0.0172,-0.05798 -0.0332,-0.08398l-14,-22c-0.013,-0.021 -0.03969,-0.02983 -0.05469,-0.04883c-0.182,-0.245 -0.45906,-0.41406 -0.78906,-0.41406zM25,3.5625v15.4375l11.76172,5.12891l-11.76172,6.87109v-12l-12.4375,4.3125zM10.83984,28.01367c-0.22037,0.03575 -0.42844,0.14626 -0.58594,0.32227c-0.314,0.353 -0.33859,0.87781 -0.05859,1.25781l14,19c0.013,0.017 0.03388,0.02306 0.04688,0.03906c0.067,0.081 0.14733,0.14322 0.23633,0.19922c0.034,0.022 0.06066,0.04941 0.09766,0.06641c0.13,0.061 0.27083,0.10156 0.42383,0.10156c0.153,0 0.29383,-0.04056 0.42383,-0.10156c0.036,-0.017 0.06366,-0.04541 0.09766,-0.06641c0.089,-0.056 0.16933,-0.11822 0.23633,-0.19922c0.013,-0.016 0.03488,-0.02206 0.04688,-0.03906l14,-19c0.28,-0.38 0.25641,-0.90481 -0.05859,-1.25781c-0.314,-0.354 -0.83319,-0.43712 -1.24219,-0.20313l-13.50391,7.7168l-13.50391,-7.7168c-0.204,-0.116 -0.43587,-0.15489 -0.65625,-0.11914zM14.61133,32.2168l10.38867,6.0957v7.81445z"></path></g></g></svg>