<svg xmlns="http://www.w3.org/2000/svg" width="32" height="32" enable-background="new 0 0 32 32" viewBox="0 0 32 32" id="usdc">
  <g>
    <g>
      <g>
        <path fill="#FFFFFF" d="M16,31C7.73,31,1,24.27,1,16S7.73,1,16,1s15,6.73,15,15S24.27,31,16,31z M16,2C8.28,2,2,8.28,2,16s6.28,14,14,14
          s14-6.28,14-14S23.72,2,16,2z"></path>
      </g>
      <g>
        <path fill="#FFFFFF" d="M17.22,21.5h-2.44c-1.53,0-2.78-1.25-2.78-2.78V18.5c0-0.28,0.22-0.5,0.5-0.5s0.5,0.22,0.5,0.5v0.22
          c0,0.98,0.8,1.78,1.78,1.78h2.44c0.98,0,1.78-0.8,1.78-1.78c0-0.79-0.53-1.49-1.29-1.71l-3.69-1.05C12.83,15.61,12,14.51,12,13.28
          c0-1.53,1.25-2.78,2.78-2.78h2.44c1.53,0,2.78,1.25,2.78,2.78v0.22c0,0.28-0.22,0.5-0.5,0.5S19,13.78,19,13.5v-0.22
          c0-0.98-0.8-1.78-1.78-1.78h-2.44c-0.98,0-1.78,0.8-1.78,1.78c0,0.79,0.53,1.49,1.29,1.71l3.69,1.05
          c1.19,0.34,2.02,1.44,2.02,2.67C20,20.25,18.75,21.5,17.22,21.5z"></path>
      </g>
      <g>
        <path fill="#FFFFFF" d="M16,23.5c-0.28,0-0.5-0.22-0.5-0.5v-2c0-0.28,0.22-0.5,0.5-0.5s0.5,0.22,0.5,0.5v2C16.5,23.28,16.28,23.5,16,23.5z"></path>
      </g>
      <g>
        <path fill="#FFFFFF" d="M16,11.5c-0.28,0-0.5-0.22-0.5-0.5V9c0-0.28,0.22-0.5,0.5-0.5s0.5,0.22,0.5,0.5v2C16.5,11.28,16.28,11.5,16,11.5z"></path>
      </g>
      <g>
        <path fill="#FFFFFF" d="M12.5,26.39c-0.06,0-0.11-0.01-0.17-0.03C7.95,24.81,5,20.64,5,16s2.95-8.81,7.33-10.36
          c0.26-0.09,0.54,0.04,0.64,0.3c0.09,0.26-0.04,0.55-0.3,0.64C8.68,7.99,6,11.78,6,16s2.68,8.01,6.67,9.42
          c0.26,0.09,0.4,0.38,0.3,0.64C12.9,26.26,12.71,26.39,12.5,26.39z"></path>
      </g>
      <g>
        <path fill="#FFFFFF" d="M19.5,26.39c-0.21,0-0.4-0.13-0.47-0.33c-0.09-0.26,0.04-0.55,0.3-0.64C23.32,24.01,26,20.22,26,16
          s-2.68-8.01-6.67-9.42c-0.26-0.09-0.4-0.38-0.3-0.64c0.09-0.26,0.38-0.4,0.64-0.3C24.05,7.19,27,11.36,27,16
          s-2.95,8.81-7.33,10.36C19.61,26.38,19.56,26.39,19.5,26.39z"></path>
      </g>
    </g>
  </g>
</svg>
